<svg xmlns="http://www.w3.org/2000/svg" xmlns:xlink="http://www.w3.org/1999/xlink" width="298.382" height="150" viewBox="0 0 298.382 288"><defs><linearGradient id="a" x1="1.255" y1="-2.024" x2="0" y2="3.351" gradientUnits="objectBoundingBox"><stop offset="0" stop-color="#ff00ae"/><stop offset="1" stop-color="#0084ae"/></linearGradient><clipPath id="bj"><rect width="298.382" height="167.82" fill="url(#a)"/></clipPath><clipPath id="bl"><rect width="11.173" height="11.173" fill="url(#a)"/></clipPath><clipPath id="cb"><rect width="11.173" height="11.173" transform="translate(0)" fill="url(#a)"/></clipPath></defs><g transform="translate(76)"><g transform="translate(-38.477 97.305)"><path d="M237.562,236.2h0v-15l-23.974.044H194.276l3.651,9.37v16.364l-9.9-25.6h-16.1l-15.836,42.978L139.949,248.21l26.878-26.878H148.043L134.274,235.1V221.332H71.589v31.321h28.417v11.393H63.979V221.332H9.3l12.933,11.393v42.714h91.146V244.119H84.918V232.725H120.99v42.714h13.285V261.363l14.165,14.165h18.784l-.044-.044,13.285-42.67,9.062,31.321H175.713l-2.859,11.393h36.467V262.462l7.3-6.774,20.807,19.8V260.175l-12.669-12.053ZM35.518,264V232.681H50.694V264Zm173.8-33.3h18.432l-18.432,17.112Z" transform="translate(-9.3 -221.2)" fill="url(#a)"/></g><g transform="translate(-76 120.18)"><g transform="translate(0 0)"><g transform="translate(0 0)" clip-path="url(#bj)"><g clip-path="url(#bj)"><g transform="translate(212.602 44.781)" clip-path="url(#bl)"><g clip-path="url(#bl)"><path d="M418.473,386.173H407.3V375Z" transform="translate(-407.3 -375)" fill="url(#a)"/></g></g></g></g><g transform="translate(0 0)" clip-path="url(#bj)"><line y2="11.173" transform="translate(212.602 44.781)" fill="none" stroke="#000" stroke-miterlimit="10" stroke-width="0.353"/></g><g transform="translate(0 0)" clip-path="url(#bj)"><line x1="11.173" transform="translate(212.602 55.955)" fill="none" stroke="#000" stroke-miterlimit="10" stroke-width="0.353"/></g><g transform="translate(0 0)" clip-path="url(#bj)"><line x2="11.173" y2="11.173" transform="translate(212.602 44.781)" fill="none" stroke="#000" stroke-miterlimit="10" stroke-width="0.353"/></g><g transform="translate(0 0)" clip-path="url(#bj)"><g clip-path="url(#bj)"><g transform="translate(145.474 44.781)" clip-path="url(#bl)"><g clip-path="url(#bl)"><path d="M265.873,375,254.7,386.173V375Z" transform="translate(-254.7 -375)" fill="url(#a)"/></g></g></g></g><g transform="translate(0 0)" clip-path="url(#bj)"><line y2="11.173" transform="translate(145.474 44.781)" fill="none" stroke="#000" stroke-miterlimit="10" stroke-width="0.353"/></g><g transform="translate(0 0)" clip-path="url(#bj)"><line x1="11.173" transform="translate(145.474 44.781)" fill="none" stroke="#000" stroke-miterlimit="10" stroke-width="0.353"/></g><g transform="translate(0 0)" clip-path="url(#bj)"><line y1="11.173" x2="11.173" transform="translate(145.474 44.781)" fill="none" stroke="#000" stroke-miterlimit="10" stroke-width="0.353"/></g><g transform="translate(0 0)" clip-path="url(#bj)"><g clip-path="url(#bj)"><g transform="translate(111.91 89.519)" clip-path="url(#cb)"><g transform="translate(0)" clip-path="url(#bl)"><path d="M189.573,476.7,178.4,487.873V476.7Z" transform="translate(-178.4 -476.7)" fill="url(#a)"/></g></g></g></g><g transform="translate(0 0)" clip-path="url(#bj)"><line y2="11.173" transform="translate(111.91 89.519)" fill="none" stroke="#000" stroke-miterlimit="10" stroke-width="0.353"/></g><g transform="translate(0 0)" clip-path="url(#bj)"><line x1="11.173" transform="translate(111.91 89.519)" fill="none" stroke="#000" stroke-miterlimit="10" stroke-width="0.353"/></g><g transform="translate(0 0)" clip-path="url(#bj)"><line y1="11.173" x2="11.173" transform="translate(111.91 89.519)" fill="none" stroke="#000" stroke-miterlimit="10" stroke-width="0.353"/></g><g transform="translate(0 0)" clip-path="url(#bj)"><g clip-path="url(#bj)"><g transform="translate(179.038 55.955)" clip-path="url(#bl)"><g clip-path="url(#bl)"><path d="M342.173,400.4,331,411.573V400.4Z" transform="translate(-331 -400.4)" fill="url(#a)"/></g></g></g></g><g transform="translate(0 0)" clip-path="url(#bj)"><line y2="11.173" transform="translate(179.038 55.955)" fill="none" stroke="#000" stroke-miterlimit="10" stroke-width="0.353"/></g><g transform="translate(0 0)" clip-path="url(#bj)"><line x1="11.173" transform="translate(179.038 55.955)" fill="none" stroke="#000" stroke-miterlimit="10" stroke-width="0.353"/></g><g transform="translate(0 0)" clip-path="url(#bj)"><line y1="11.173" x2="11.173" transform="translate(179.038 55.955)" fill="none" stroke="#000" stroke-miterlimit="10" stroke-width="0.353"/></g><g transform="translate(0 0)" clip-path="url(#bj)"><g clip-path="url(#bj)"><g transform="translate(190.211 44.781)" clip-path="url(#bl)"><g clip-path="url(#bl)"><path d="M367.617,375,356.4,386.173V375Z" transform="translate(-356.4 -375)" fill="url(#a)"/></g></g></g></g><g transform="translate(0 0)" clip-path="url(#bj)"><line y2="11.173" transform="translate(190.211 44.781)" fill="none" stroke="#000" stroke-miterlimit="10" stroke-width="0.353"/></g><g transform="translate(0 0)" clip-path="url(#bj)"><line x1="11.217" transform="translate(190.211 44.781)" fill="none" stroke="#000" stroke-miterlimit="10" stroke-width="0.353"/></g><g transform="translate(0 0)" clip-path="url(#bj)"><line y1="11.173" x2="11.217" transform="translate(190.211 44.781)" fill="none" stroke="#000" stroke-miterlimit="10" stroke-width="0.353"/></g><g transform="translate(0 0)" clip-path="url(#bj)"><g clip-path="url(#bj)"><g transform="translate(111.91 111.91)" clip-path="url(#cb)"><g transform="translate(0)" clip-path="url(#bl)"><path d="M189.573,538.773,178.4,527.6h11.173Z" transform="translate(-178.4 -527.6)" fill="url(#a)"/></g></g></g></g><g transform="translate(0)" clip-path="url(#bj)"><line x1="11.173" transform="translate(111.91 111.91)" fill="none" stroke="#000" stroke-miterlimit="10" stroke-width="0.353"/></g><g transform="translate(0)" clip-path="url(#bj)"><line y1="11.173" transform="translate(123.083 111.91)" fill="none" stroke="#000" stroke-miterlimit="10" stroke-width="0.353"/></g><g transform="translate(0)" clip-path="url(#bj)"><line x2="11.173" y2="11.173" transform="translate(111.91 111.91)" fill="none" stroke="#000" stroke-miterlimit="10" stroke-width="0.353"/></g><g transform="translate(0 0)" clip-path="url(#bj)"><path d="M189.573,513.317V502.1L178.4,513.317Z" transform="translate(-66.49 -401.408)" fill="url(#a)"/></g><g transform="translate(0 0)" clip-path="url(#bj)"><path d="M189.573,513.317V502.1L178.4,513.317Z" transform="translate(-66.49 -401.408)" fill="none" stroke="#000" stroke-miterlimit="10" stroke-width="0.353"/></g><g transform="translate(0 0)" clip-path="url(#bj)"><path d="M265.873,513.317V502.1L254.7,513.317Z" transform="translate(-109.226 -401.408)" fill="url(#a)"/></g><g transform="translate(0 0)" clip-path="url(#bj)"><path d="M265.873,513.317V502.1L254.7,513.317Z" transform="translate(-109.226 -401.408)" fill="none" stroke="#000" stroke-miterlimit="10" stroke-width="0.353"/></g><g transform="translate(0 0)" clip-path="url(#bj)"><path d="M381.9,386.173h11.173V375Z" transform="translate(-180.472 -330.219)" fill="url(#a)"/></g><g transform="translate(0 0)" clip-path="url(#bj)"><path d="M381.9,386.173h11.173V375Z" transform="translate(-180.472 -330.219)" fill="none" stroke="#000" stroke-miterlimit="10" stroke-width="0.353"/></g><g transform="translate(0 0)" clip-path="url(#bj)"><path d="M161.064,375H138.673L127.5,386.173h22.391v33.564h11.173V386.173h22.391V375H161.064Z" transform="translate(-37.981 -330.219)" fill="url(#a)"/></g><g transform="translate(0 0)" clip-path="url(#bj)"><path d="M161.064,375H138.673L127.5,386.173h22.391v33.564h11.173V386.173h22.391V375H161.064Z" transform="translate(-37.981 -330.219)" fill="none" stroke="#000" stroke-miterlimit="10" stroke-width="0.353"/></g><g transform="translate(0 0)" clip-path="url(#bj)"><path d="M331,448.191v22.391h11.173V425.8L331,437.017Z" transform="translate(-151.962 -358.672)" fill="url(#a)"/></g><g transform="translate(0 0)" clip-path="url(#bj)"><path d="M331,448.191v22.391h11.173V425.8L331,437.017Z" transform="translate(-151.962 -358.672)" fill="none" stroke="#000" stroke-miterlimit="10" stroke-width="0.353"/></g><g transform="translate(0 0)" clip-path="url(#bj)"><path d="M291.273,375H280.1v11.173h33.564V375H291.273Z" transform="translate(-123.453 -330.219)" fill="url(#a)"/></g><g transform="translate(0 0)" clip-path="url(#bj)"><path d="M291.273,375H280.1v11.173h33.564V375H291.273Z" transform="translate(-123.453 -330.219)" fill="none" stroke="#000" stroke-miterlimit="10" stroke-width="0.353"/></g><g transform="translate(0 0)" clip-path="url(#bj)"><path d="M189.573,524.491V502.1L178.4,513.317Z" transform="translate(-66.49 -401.408)" fill="url(#a)"/></g><g transform="translate(0 0)" clip-path="url(#bj)"><path d="M265.873,513.317V502.1L254.7,513.317Z" transform="translate(-109.226 -401.408)" fill="url(#a)"/></g><g transform="translate(0 0)" clip-path="url(#bj)"><path d="M127.5,386.173h22.391v44.737l11.173-11.173V386.173h22.391L194.628,375H138.673Z" transform="translate(-37.981 -330.219)" fill="url(#a)"/></g><g transform="translate(0 0)" clip-path="url(#bj)"><path d="M302.491,386.173v11.173L324.881,375H280.1v11.173Z" transform="translate(-123.453 -330.219)" fill="url(#a)"/></g><g transform="translate(0 0)" clip-path="url(#bj)"><path d="M331,470.581h11.173V425.8L331,437.017Z" transform="translate(-151.962 -358.672)" fill="url(#a)"/></g><g transform="translate(0 0)" clip-path="url(#bj)"><path d="M393.073,375,381.9,386.173h22.347Z" transform="translate(-180.472 -330.219)" fill="url(#a)"/></g></g></g><g transform="translate(-42.568)"><rect width="249.377" height="249.377" fill="none"/></g></g></svg>